<?xml version="1.0" encoding="UTF-8"?>
<svg version="1.2" baseProfile="tiny-ps" xmlns="http://www.w3.org/2000/svg" width="256" height="256" viewBox="0 0 256 256">
  <title>Craftora</title>
  <desc>Craftora shopping cart and play symbol</desc>
  <rect width="256" height="256" fill="#ffffff"/>
  <path d="M0 0 C0.51 -0.01 0.51 -0.01 3.09 -0.05 C8.68 -0.05 12.66 0.21 17.5 3.31 C18.16 3.64 18.82 3.97 19.5 4.31 C21.74 9.19 22.91 13.93 22.5 19.31 C23.16 19.31 23.82 19.31 24.5 19.31 C24.5 20.63 24.5 21.95 24.5 23.31 C25.12 23.26 25.74 23.22 26.38 23.17 C45.16 22.03 57.16 27.14 72.65 37.43 C83.65 44.7 83.65 44.7 88.5 46.31 C91.76 50.45 92.07 54.22 92.5 59.31 C91.91 59.63 91.32 59.94 90.71 60.27 C86.29 62.66 82.39 65.11 78.5 68.31 C78 68.48 78 68.48 75.5 69.31 C74.26 69.98 73.03 70.66 71.81 71.38 C70.72 72.01 69.63 72.65 68.5 73.31 C68.5 73.97 68.5 74.63 68.5 75.31 C67.82 75.38 67.14 75.46 66.44 75.53 C63.31 76.36 61.06 77.76 58.39 79.55 C50.84 84.6 44.78 86.7 35.5 86.31 C35.5 87.96 35.5 89.61 35.5 91.31 C59.59 91.31 83.68 91.31 108.5 91.31 C108.5 91.97 108.5 92.63 108.5 93.31 C110.15 93.97 111.8 94.63 113.5 95.31 C113.5 97.95 113.5 100.59 113.5 103.31 C108.89 105.54 104.54 105.86 99.5 106.31 C102.47 106.31 105.44 106.31 108.5 106.31 C108.5 106.64 108.5 106.97 108.5 107.31 C106.19 107.31 103.88 107.31 101.5 107.31 C101.83 108.63 102.16 109.95 102.5 111.31 C102.83 111.31 103.16 111.31 103.5 111.31 C103.86 116.76 103.86 116.76 102.44 118.94 C94.8 124.36 94.8 124.36 89.88 124.19 C84.1 122.69 84.1 122.69 81.5 121.31 C80.51 118.34 80.5 116.4 80.5 113.31 C80.41 112.94 80.41 112.94 79.94 111.06 C79.87 110.77 79.87 110.77 79.5 109.31 C79.83 108.98 80.16 108.65 80.5 108.31 C76.87 108.15 76.87 108.15 58.5 107.31 C58.66 109.29 58.66 109.29 59.5 119.31 C57.85 120.3 56.2 121.29 54.5 122.31 C53.88 122.72 53.26 123.14 52.62 123.56 C48.18 125.13 44.19 123.63 40.06 121.75 C39.22 121.28 38.37 120.8 37.5 120.31 C37.52 119.24 37.54 118.17 37.56 117.06 C37.51 114.16 37.37 112.03 36.5 109.31 C38.15 108.32 39.8 107.33 41.5 106.31 C41.14 106.27 41.14 106.27 39.34 106.05 C31.71 104.93 27.24 103.17 21.8 97.56 C19.99 94.43 20.35 92.25 20.69 88.69 C20.78 87.54 20.88 86.39 20.98 85.21 C21.72 81.09 24.6 79.21 27.5 76.31 C27.17 75.98 27.17 75.98 25.5 74.31 C23.5 71.02 22.95 67.85 22.38 64.06 C22.29 63.52 22.29 63.52 21.87 60.8 C21.75 59.98 21.62 59.16 21.5 58.31 C20.84 58.31 20.18 58.31 19.5 58.31 C18.36 53.33 17.28 48.37 16.5 43.31 C15.84 43.31 15.18 43.31 14.5 43.31 C14.34 41.66 14.34 41.66 13.5 33.31 C12.84 33.31 12.18 33.31 11.5 33.31 C10.36 28.33 9.28 23.37 8.5 18.31 C7.84 18.31 7.18 18.31 6.5 18.31 C6.83 16.33 7.16 14.35 7.5 12.31 C7.19 12.32 7.19 12.32 5.62 12.36 C2.81 12.42 -0 12.46 -2.81 12.5 C-3.3 12.51 -3.3 12.51 -5.77 12.58 C-6.24 12.58 -6.24 12.58 -8.61 12.61 C-9.48 12.62 -10.34 12.64 -11.23 12.65 C-13.5 12.31 -13.5 12.31 -15.26 11.02 C-17.2 8.35 -17.2 5.53 -17.5 2.31 C-11.73 -0.17 -6.17 -0.02 0 0 Z M17.5 5.31 C18.5 7.31 18.5 7.31 18.5 7.31 Z M14.5 37.31 C15.5 39.31 15.5 39.31 15.5 39.31 Z M23.5 65.31 C24.5 67.31 24.5 67.31 24.5 67.31 Z M24.5 68.31 C25.5 70.31 25.5 70.31 25.5 70.31 Z M21.5 93.31 C22.5 95.31 22.5 95.31 22.5 95.31 Z M54.5 105.31 C56.5 107.31 56.5 107.31 59.3 107.54 C60.46 107.53 61.62 107.52 62.82 107.51 C64.08 107.5 65.33 107.49 66.63 107.49 C67.95 107.47 69.27 107.45 70.62 107.44 C71.96 107.43 73.3 107.42 74.64 107.41 C77.93 107.39 81.21 107.35 84.5 107.31 C84.83 106.65 85.16 105.99 85.5 105.31 C75.27 105.31 65.04 105.31 54.5 105.31 Z " fill="#044F78" transform="translate(73.5,62.6875)"/>
  <path d="M0 0 C8.16 0.06 16.32 0.14 24.49 0.24 C28.28 0.28 32.07 0.32 35.86 0.35 C39.51 0.37 43.17 0.41 46.83 0.46 C48.22 0.48 49.62 0.49 51.02 0.5 C52.97 0.51 54.92 0.54 56.88 0.57 C57.99 0.58 59.1 0.59 60.25 0.6 C63 1 63 1 64.85 2.38 C66.41 4.58 66.58 6.33 66.81 9 C66.9 9.87 66.99 10.73 67.08 11.62 C67 14 67 14 65 17 C62.85 20.54 62.51 23.93 62 28 C61.55 29.96 61.03 31.88 60.5 33.81 C59.81 36.85 59.42 39.91 59 43 C58.34 43 57.68 43 57 43 C56.49 44.73 55.99 46.46 55.5 48.19 C55.22 49.15 54.94 50.11 54.66 51.11 C54.03 53.85 53.88 56.2 54 59 C50.06 60.97 47.63 62.12 43.18 62.11 C42.18 62.11 41.18 62.11 40.15 62.11 C39.07 62.11 37.98 62.1 36.87 62.1 C35.76 62.1 34.65 62.09 33.51 62.09 C29.97 62.09 26.42 62.08 22.88 62.06 C20.48 62.06 18.08 62.05 15.68 62.05 C9.78 62.04 3.89 62.02 -2 62 C-2 61.34 -2 60.68 -2 60 C-1.09 59.65 -0.17 59.3 0.77 58.94 C6.4 56.52 11.53 53.2 16.75 50 C17.79 49.37 18.83 48.74 19.9 48.09 C29.52 42.22 29.52 42.22 33 37 C33.3 34.26 33.3 34.26 33.31 31.12 C33.33 30.1 33.35 29.07 33.36 28.01 C32.94 24.52 32.16 22.76 30 20 C27.59 18.45 27.59 18.45 24.94 17.25 C24.06 16.84 23.18 16.44 22.28 16.02 C21.53 15.68 20.77 15.35 20 15 C18 14 18 14 15.8 12.2 C12.2 9.37 8.32 7.12 4.38 4.82 C2.89 3.93 1.44 2.97 0 2 C0 1.34 0 0.68 0 0 Z M65 10 C66 13 66 13 66 13 Z M35 27 C34.38 29.88 34.38 29.88 34 33 C34.66 33.66 35.32 34.32 36 35 C36.62 32.12 36.62 32.12 37 29 C36.34 28.34 35.68 27.68 35 27 Z M58 36 C59 39 59 39 59 39 Z " fill="#045076" transform="translate(133,86)"/>
  <path d="M0 0 C3.22 0.51 5.58 1.8 8.33 3.5 C8.73 3.75 8.73 3.75 10.75 5 C11.57 5.51 12.4 6.03 13.25 6.56 C14.09 7.08 14.93 7.6 15.8 8.14 C17.87 9.42 19.94 10.71 22 12 C21.25 16.77 21.25 16.77 18.96 18.88 C18.11 19.43 17.25 19.99 16.38 20.56 C15.47 21.15 14.57 21.74 13.64 22.35 C12.77 22.9 11.9 23.44 11 24 C10.33 24.44 9.65 24.88 8.96 25.34 C5.42 27.53 3.1 28.17 -1 28 C-1.03 23.52 -1.05 19.04 -1.06 14.56 C-1.07 13.28 -1.08 12 -1.09 10.69 C-1.09 9.47 -1.09 8.26 -1.1 7 C-1.1 5.88 -1.11 4.75 -1.11 3.59 C-1 1 -1 1 0 0 Z " fill="#011025" transform="translate(127,103)"/>
  <path d="M0 0 C0.57 0.33 1.14 0.66 1.73 1 C4.7 2.31 7.06 2.23 10.3 2.2 C11.5 2.19 12.71 2.18 13.95 2.18 C15.2 2.16 16.46 2.14 17.75 2.12 C19.02 2.12 20.29 2.11 21.6 2.1 C24.73 2.07 27.87 2.04 31 2 C29 4 29 4 26.66 4.14 C25.71 4.08 24.76 4.03 23.77 3.98 C22.74 3.93 21.71 3.87 20.65 3.82 C19.57 3.76 18.49 3.69 17.38 3.62 C16.29 3.57 15.2 3.51 14.08 3.45 C11.38 3.31 8.69 3.16 6 3 C6.33 6.96 6.66 10.92 7 15 C5.35 15.99 3.7 16.98 2 18 C1.38 18.41 0.76 18.82 0.12 19.25 C-4.32 20.82 -8.31 19.31 -12.44 17.44 C-13.28 16.96 -14.13 16.49 -15 16 C-14.98 14.93 -14.96 13.85 -14.94 12.75 C-14.99 9.85 -15.13 7.71 -16 5 C-15.24 4.55 -14.47 4.09 -13.69 3.62 C-8.83 0.69 -5.76 -0.75 0 0 Z " fill="#010F33" transform="translate(126,167)"/>
  <path d="M0 0 C0.65 0.33 1.29 0.67 1.96 1.01 C4.39 2.19 6.06 2.2 8.75 2.12 C9.15 2.12 9.15 2.12 11.17 2.07 C11.47 2.06 11.47 2.06 13 2 C13 2.33 13 2.66 13 3 C10.69 3 8.38 3 6 3 C6.33 4.32 6.66 5.64 7 7 C7.33 7 7.66 7 8 7 C8.36 12.44 8.36 12.44 6.94 14.62 C-0.7 20.04 -0.7 20.04 -5.62 19.88 C-11.4 18.38 -11.4 18.38 -14 17 C-14.99 14.03 -15 12.09 -15 9 C-15.29 7.66 -15.61 6.32 -16 5 C-15.24 4.55 -14.47 4.09 -13.69 3.62 C-8.83 0.69 -5.76 -0.75 0 0 Z " fill="#011027" transform="translate(169,167)"/>
</svg>
